<?xml version="1.0" standalone="no"?>
<!DOCTYPE svg PUBLIC "-//W3C//DTD SVG 20010904//EN"
 "http://www.w3.org/TR/2001/REC-SVG-20010904/DTD/svg10.dtd">
<svg version="1.0" xmlns="http://www.w3.org/2000/svg"
 width="198.000000pt" height="198.000000pt" viewBox="0 0 198.000000 198.000000"
 preserveAspectRatio="xMidYMid meet">
<metadata>
Created by potrace 1.11, written by Peter Selinger 2001-2013
</metadata>
<g transform="translate(0.000000,198.000000) scale(0.100000,-0.100000)"
fill="#000000" stroke="none">
<path d="M830 1968 c-97 -13 -250 -69 -341 -124 -152 -92 -305 -256 -382 -409
-282 -564 29 -1246 640 -1401 126 -32 221 -39 343 -25 428 50 747 327 862 749
31 112 30 341 -1 466 -25 106 -93 253 -155 340 -51 71 -180 198 -248 244 -202
138 -464 196 -718 160z m-123 -889 c51 -123 97 -234 103 -246 5 -13 15 -20 23
-18 10 5 10 43 -5 213 -9 114 -19 218 -21 230 l-5 24 92 -7 c50 -4 94 -9 97
-11 3 -1 -9 -119 -27 -261 -39 -307 -40 -313 -16 -314 33 -2 -32 -17 -78 -18
l-45 -1 -144 229 c-99 159 -148 228 -158 224 -7 -3 -12 -13 -9 -22 2 -9 26
-106 52 -216 36 -152 52 -203 68 -217 l21 -18 -25 4 c-14 3 -81 10 -150 16
-151 14 -162 16 -137 35 16 11 20 42 32 237 20 309 20 296 -12 311 -25 11 -16
14 102 33 72 12 134 21 140 20 5 -1 51 -103 102 -227z m586 221 c200 -12 266
-23 301 -51 55 -43 20 -142 -61 -175 -48 -20 -41 -39 18 -52 28 -7 64 -21 79
-32 59 -42 63 -143 9 -205 -54 -61 -136 -82 -469 -119 l-45 -5 49 25 c43 23
48 29 43 52 -3 15 -22 143 -43 285 -37 249 -39 259 -64 272 -32 18 -34 18 183
5z"/>
<path d="M1303 1189 c4 -34 7 -73 7 -86 0 -22 3 -24 33 -18 52 12 86 34 93 59
13 54 -19 86 -100 100 l-39 7 6 -62z"/>
<path d="M1318 973 c-17 -4 -22 -24 -34 -140 -3 -35 -3 -63 1 -63 14 0 94 61
119 90 28 34 35 87 14 108 -12 12 -65 14 -100 5z"/>
</g>
</svg>
